<?xml version="1.0" encoding="UTF-8"?>
<svg xmlns="http://www.w3.org/2000/svg" xmlns:xlink="http://www.w3.org/1999/xlink" width="156px" height="24px" viewBox="0 0 156 24" version="1.1">
<g id="surface1">
<path style=" stroke:none;fill-rule:nonzero;fill:rgb(94.117647%,95.294118%,99.607843%);fill-opacity:1;" d="M 0 0 C 51.480469 0 102.960938 0 156 0 C 156 7.921875 156 15.839844 156 24 C 104.519531 24 53.039062 24 0 24 C 0 16.078125 0 8.160156 0 0 Z M 0 0 "/>
<path style=" stroke:none;fill-rule:nonzero;fill:rgb(96.470588%,40.000001%,62.352943%);fill-opacity:1;" d="M 34.390625 12.136719 C 34.8125 12.136719 34.8125 12.136719 35.238281 12.136719 C 35.695312 12.136719 35.695312 12.136719 36.164062 12.136719 C 36.472656 12.136719 36.785156 12.136719 37.101562 12.136719 C 37.761719 12.136719 38.417969 12.136719 39.078125 12.136719 C 40.085938 12.136719 41.097656 12.136719 42.109375 12.136719 C 42.746094 12.136719 43.382812 12.136719 44.019531 12.136719 C 44.324219 12.136719 44.628906 12.136719 44.945312 12.136719 C 45.222656 12.136719 45.503906 12.136719 45.792969 12.136719 C 46.164062 12.136719 46.164062 12.136719 46.542969 12.136719 C 47.113281 12.144531 47.113281 12.144531 47.425781 12.191406 C 47.253906 12.507812 46.640625 12.804688 46.078125 13.109375 C 45.984375 13.160156 45.894531 13.210938 45.796875 13.261719 C 45.128906 13.628906 44.40625 13.988281 43.679688 14.351562 C 38.945312 14.351562 34.207031 14.351562 29.328125 14.351562 C 29.679688 13.8125 29.679688 13.8125 30.117188 13.605469 C 30.207031 13.558594 30.300781 13.511719 30.398438 13.464844 C 30.496094 13.421875 30.59375 13.375 30.691406 13.324219 C 30.890625 13.230469 31.089844 13.132812 31.289062 13.035156 C 31.382812 12.988281 31.476562 12.941406 31.570312 12.894531 C 31.972656 12.695312 32.296875 12.488281 32.601562 12.285156 C 32.890625 12.117188 33.347656 12.136719 34.390625 12.136719 Z M 34.390625 12.136719 "/>
<path style=" stroke:none;fill-rule:nonzero;fill:rgb(93.725491%,43.921569%,61.960787%);fill-opacity:1;" d="M 27.769531 9.648438 C 32.503906 9.648438 37.242188 9.648438 42.121094 9.648438 C 42.121094 10.023438 42.121094 10.023438 41.632812 10.242188 C 40.8125 10.628906 40.125 11.019531 39.429688 11.410156 C 39.335938 11.460938 39.246094 11.511719 39.152344 11.5625 C 39.070312 11.609375 38.988281 11.65625 38.902344 11.703125 C 38.6875 11.808594 38.6875 11.808594 38.375 11.855469 C 37.949219 11.859375 37.519531 11.863281 37.089844 11.863281 C 36.816406 11.863281 36.542969 11.863281 36.261719 11.863281 C 35.820312 11.863281 35.820312 11.863281 35.363281 11.863281 C 35.0625 11.863281 34.757812 11.863281 34.445312 11.863281 C 33.804688 11.863281 33.164062 11.863281 32.523438 11.863281 C 31.535156 11.863281 30.550781 11.863281 29.566406 11.863281 C 28.945312 11.863281 28.324219 11.863281 27.699219 11.863281 C 27.40625 11.863281 27.109375 11.863281 26.804688 11.863281 C 26.394531 11.863281 26.394531 11.863281 25.972656 11.863281 C 25.734375 11.863281 25.492188 11.863281 25.242188 11.863281 C 24.648438 11.855469 24.648438 11.855469 24.023438 11.808594 C 24.230469 11.597656 24.527344 11.398438 24.878906 11.191406 C 24.933594 11.160156 24.984375 11.132812 25.039062 11.097656 C 25.152344 11.035156 25.261719 10.972656 25.375 10.90625 C 25.542969 10.808594 25.710938 10.710938 25.878906 10.617188 C 25.988281 10.554688 26.097656 10.488281 26.207031 10.425781 C 26.351562 10.34375 26.351562 10.34375 26.5 10.257812 C 26.882812 10.050781 27.332031 9.851562 27.769531 9.648438 Z M 27.769531 9.648438 "/>
<path style=" stroke:none;fill-rule:nonzero;fill:rgb(92.54902%,45.490196%,61.56863%);fill-opacity:1;" d="M 92.617188 10.554688 C 93.257812 10.558594 93.894531 10.558594 94.535156 10.558594 C 94.699219 10.609375 94.859375 10.660156 95.027344 10.710938 C 95.132812 10.742188 95.238281 10.777344 95.34375 10.808594 C 95.574219 10.878906 95.800781 10.949219 96.03125 11.019531 C 96.527344 11.175781 97.03125 11.328125 97.546875 11.480469 C 97.683594 11.523438 97.824219 11.5625 97.96875 11.605469 C 98.089844 11.644531 98.210938 11.679688 98.339844 11.714844 C 98.59375 11.808594 98.59375 11.808594 98.59375 11.953125 C 98.796875 11.953125 99.003906 11.953125 99.214844 11.953125 C 99.207031 11.921875 99.203125 11.894531 99.195312 11.863281 C 99.152344 11.570312 99.285156 11.28125 99.507812 10.984375 C 99.535156 10.949219 99.5625 10.914062 99.589844 10.875 C 99.800781 10.613281 99.800781 10.613281 100.152344 10.558594 C 101.089844 10.554688 102.023438 10.558594 102.960938 10.558594 C 102.777344 11.039062 102.445312 11.507812 102.023438 11.980469 C 101.96875 12.046875 101.910156 12.113281 101.855469 12.175781 C 101.445312 12.644531 101.445312 12.644531 101.089844 12.863281 C 100.160156 12.863281 99.234375 12.863281 98.28125 12.863281 C 97.746094 12.6875 97.210938 12.515625 96.679688 12.339844 C 96.5 12.277344 96.316406 12.21875 96.136719 12.160156 C 95.875 12.074219 95.613281 11.988281 95.355469 11.902344 C 95.121094 11.824219 95.121094 11.824219 94.878906 11.746094 C 94.535156 11.617188 94.535156 11.617188 94.535156 11.472656 C 94.332031 11.472656 94.125 11.472656 93.910156 11.472656 C 93.921875 11.53125 93.929688 11.59375 93.941406 11.65625 C 93.941406 11.914062 93.710938 12.160156 93.445312 12.410156 C 93.378906 12.476562 93.378906 12.476562 93.308594 12.542969 C 93.199219 12.652344 93.089844 12.757812 92.976562 12.863281 C 92.050781 12.863281 91.121094 12.863281 90.167969 12.863281 C 90.277344 12.339844 90.671875 11.824219 91.105469 11.308594 C 91.132812 11.273438 91.160156 11.238281 91.1875 11.203125 C 91.269531 11.105469 91.351562 11.007812 91.433594 10.910156 C 91.484375 10.855469 91.53125 10.796875 91.582031 10.738281 C 91.777344 10.5625 91.777344 10.5625 92.617188 10.554688 Z M 92.617188 10.554688 "/>
<path style=" stroke:none;fill-rule:nonzero;fill:rgb(92.54902%,45.09804%,61.176473%);fill-opacity:1;" d="M 79.871094 11.183594 C 80.796875 11.183594 81.726562 11.183594 82.679688 11.183594 C 82.78125 11.214844 82.886719 11.246094 82.992188 11.28125 C 83.300781 11.25 83.609375 11.214844 83.929688 11.183594 C 85.105469 11.152344 86.257812 11.144531 87.324219 11.234375 C 87.996094 11.320312 88.527344 11.398438 88.921875 11.519531 C 89.183594 11.953125 89.070312 12.316406 87.359375 12.671875 C 86.226562 12.84375 85.386719 12.875 83.851562 12.882812 C 82.464844 12.878906 82.464844 12.878906 81.742188 12.769531 C 81.703125 12.816406 81.660156 12.863281 81.617188 12.914062 C 81.5625 12.976562 81.507812 13.039062 81.453125 13.101562 C 81.398438 13.164062 81.34375 13.226562 81.285156 13.289062 C 81.121094 13.441406 81.121094 13.441406 80.808594 13.488281 C 79.871094 13.496094 78.9375 13.488281 78 13.488281 C 78.257812 13.078125 78.550781 12.671875 78.851562 12.261719 C 78.910156 12.183594 78.964844 12.109375 79.019531 12.03125 C 79.101562 11.917969 79.183594 11.804688 79.265625 11.691406 C 79.292969 11.65625 79.316406 11.625 79.34375 11.589844 C 79.449219 11.445312 79.578125 11.320312 79.871094 11.183594 Z M 79.871094 11.183594 "/>
<path style=" stroke:none;fill-rule:nonzero;fill:rgb(92.54902%,45.09804%,61.176473%);fill-opacity:1;" d="M 65.03125 10.617188 C 65.957031 10.71875 66.511719 10.792969 67.078125 10.945312 C 67.199219 11.078125 67.152344 11.191406 67.078125 11.328125 C 66.769531 11.375 66.769531 11.375 66.191406 11.378906 C 65.550781 11.378906 64.910156 11.378906 64.273438 11.375 C 64.183594 11.320312 64.09375 11.265625 64 11.210938 C 63.882812 11.15625 63.765625 11.097656 63.648438 11.039062 C 62.746094 10.96875 62.152344 10.972656 61.152344 10.992188 C 60.148438 11.117188 59.65625 11.195312 59.304688 11.390625 C 59.261719 11.445312 59.222656 11.5 59.183594 11.558594 C 59.140625 11.617188 59.097656 11.675781 59.054688 11.738281 C 58.769531 12.101562 58.769531 12.101562 59.59375 12.433594 C 61.351562 12.464844 61.351562 12.464844 62.847656 12.34375 C 63.386719 12.238281 63.386719 12.238281 63.648438 12.097656 C 64.574219 12.097656 65.5 12.097656 66.457031 12.097656 C 66.570312 12.339844 66.109375 12.449219 65.128906 12.632812 C 63.726562 12.855469 62.304688 12.875 60.371094 12.890625 C 58.640625 12.886719 57.730469 12.839844 56.527344 12.648438 C 55.09375 12.367188 55.84375 11.894531 56.082031 11.554688 C 56.125 11.492188 56.167969 11.429688 56.214844 11.367188 C 56.699219 11.023438 57.769531 10.8125 59.59375 10.609375 C 61.363281 10.515625 63.277344 10.523438 65.03125 10.617188 Z M 65.03125 10.617188 "/>
<path style=" stroke:none;fill-rule:nonzero;fill:rgb(92.54902%,45.490196%,61.56863%);fill-opacity:1;" d="M 111.382812 11.183594 C 112.59375 11.3125 113.21875 11.445312 113.566406 11.664062 C 113.628906 11.824219 113.652344 11.984375 113.566406 12.144531 C 113.257812 12.191406 113.257812 12.191406 112.617188 12.199219 C 112.347656 12.195312 112.074219 12.195312 111.792969 12.195312 C 111.496094 12.195312 111.203125 12.195312 110.898438 12.195312 C 110.589844 12.195312 110.28125 12.195312 109.960938 12.195312 C 109.648438 12.195312 109.339844 12.195312 109.019531 12.195312 C 108.246094 12.195312 107.476562 12.191406 106.703125 12.191406 C 106.808594 12.269531 106.910156 12.351562 107.015625 12.433594 C 109.433594 12.449219 109.433594 12.449219 111.695312 12.335938 C 112.183594 12.394531 112.183594 12.394531 112.632812 12.480469 C 112.671875 12.574219 112.671875 12.574219 112.320312 12.671875 C 110.714844 12.871094 109.304688 12.898438 107.269531 12.886719 C 105.914062 12.851562 105.414062 12.785156 104.519531 12.625 C 103.46875 12.363281 103.726562 12.039062 104.089844 11.746094 C 105.707031 11.25 107.847656 11.117188 111.382812 11.183594 Z M 111.382812 11.183594 "/>
<path style=" stroke:none;fill-rule:nonzero;fill:rgb(95.294118%,42.352942%,62.7451%);fill-opacity:1;" d="M 25.058594 12.136719 C 25.394531 12.136719 25.726562 12.136719 26.074219 12.136719 C 26.425781 12.136719 26.78125 12.136719 27.144531 12.136719 C 27.496094 12.136719 27.851562 12.136719 28.214844 12.136719 C 28.550781 12.136719 28.886719 12.136719 29.230469 12.136719 C 29.695312 12.136719 29.695312 12.136719 30.171875 12.136719 C 30.886719 12.144531 30.886719 12.144531 31.199219 12.191406 C 31.378906 12.464844 30.832031 12.695312 30.285156 12.949219 C 30.195312 12.992188 30.109375 13.035156 30.019531 13.078125 C 29.375 13.382812 29.375 13.382812 29.015625 13.441406 C 27.828125 13.453125 26.636719 13.449219 25.449219 13.449219 C 24.945312 13.449219 24.945312 13.449219 24.429688 13.449219 C 24.109375 13.449219 23.789062 13.449219 23.460938 13.449219 C 23.015625 13.453125 23.015625 13.453125 22.566406 13.453125 C 21.839844 13.441406 21.839844 13.441406 21.214844 13.34375 C 21.355469 13.09375 21.867188 12.851562 22.308594 12.609375 C 22.378906 12.570312 22.449219 12.53125 22.519531 12.488281 C 23.15625 12.136719 23.15625 12.136719 25.058594 12.136719 Z M 25.058594 12.136719 "/>
<path style=" stroke:none;fill-rule:nonzero;fill:rgb(94.901961%,41.960785%,61.960787%);fill-opacity:1;" d="M 42.121094 10.609375 C 44.796875 10.609375 47.472656 10.609375 50.230469 10.609375 C 50.230469 10.933594 50.230469 10.933594 49.832031 11.121094 C 49.75 11.160156 49.667969 11.203125 49.582031 11.242188 C 49.492188 11.285156 49.40625 11.324219 49.316406 11.367188 C 49.230469 11.410156 49.140625 11.449219 49.054688 11.492188 C 48.40625 11.800781 48.40625 11.800781 48.046875 11.855469 C 47.496094 11.859375 46.941406 11.863281 46.390625 11.863281 C 46.054688 11.863281 45.71875 11.863281 45.375 11.863281 C 45.019531 11.863281 44.667969 11.863281 44.304688 11.863281 C 43.949219 11.863281 43.597656 11.863281 43.234375 11.863281 C 42.898438 11.863281 42.5625 11.863281 42.21875 11.863281 C 41.90625 11.863281 41.597656 11.863281 41.277344 11.863281 C 40.558594 11.855469 40.558594 11.855469 40.246094 11.808594 C 40.34375 11.386719 41.269531 11.007812 42.121094 10.609375 Z M 42.121094 10.609375 "/>
<path style=" stroke:none;fill-rule:nonzero;fill:rgb(92.54902%,45.09804%,61.176473%);fill-opacity:1;" d="M 119.90625 11.171875 C 120.433594 11.171875 120.433594 11.171875 120.972656 11.167969 C 122.390625 11.191406 123.183594 11.269531 124.175781 11.425781 C 124.214844 11.574219 124.214844 11.574219 124.175781 11.710938 C 123.25 11.710938 122.324219 11.710938 121.367188 11.710938 C 121.367188 11.664062 121.367188 11.617188 121.367188 11.566406 C 120.542969 11.566406 119.71875 11.566406 118.871094 11.566406 C 118.667969 11.632812 118.460938 11.695312 118.246094 11.761719 C 118.496094 11.769531 118.746094 11.773438 119 11.78125 C 122.699219 11.910156 122.699219 11.910156 123.863281 12.144531 C 124.007812 12.300781 123.890625 12.425781 123.550781 12.574219 C 122.75 12.730469 122.277344 12.800781 121.054688 12.863281 C 120.34375 12.871094 119.625 12.875 118.910156 12.878906 C 118.53125 12.878906 118.152344 12.882812 117.761719 12.882812 C 116.496094 12.859375 116 12.8125 115.128906 12.671875 C 114.875 12.492188 114.875 12.492188 114.816406 12.335938 C 115.269531 12.332031 115.726562 12.328125 116.179688 12.328125 C 116.433594 12.324219 116.6875 12.324219 116.949219 12.320312 C 117.171875 12.328125 117.394531 12.332031 117.625 12.335938 C 117.828125 12.382812 118.035156 12.429688 118.246094 12.480469 C 119.367188 12.492188 119.367188 12.492188 120.433594 12.480469 C 120.535156 12.417969 120.636719 12.351562 120.742188 12.289062 C 120.5625 12.285156 120.382812 12.277344 120.195312 12.273438 C 118.5625 12.226562 117.386719 12.164062 116.0625 12 C 115.320312 11.828125 115.238281 11.769531 115.441406 11.566406 C 116.707031 11.273438 117.609375 11.175781 119.90625 11.171875 Z M 119.90625 11.171875 "/>
<path style=" stroke:none;fill-rule:nonzero;fill:rgb(92.54902%,45.882353%,61.960787%);fill-opacity:1;" d="M 127.609375 10.753906 C 128.535156 10.753906 129.460938 10.753906 130.414062 10.753906 C 130.414062 10.894531 130.414062 11.039062 130.414062 11.183594 C 131.136719 11.183594 131.859375 11.183594 132.601562 11.183594 C 132.496094 11.3125 132.394531 11.4375 132.289062 11.566406 C 131.464844 11.566406 130.640625 11.566406 129.792969 11.566406 C 129.796875 11.628906 129.804688 11.691406 129.8125 11.757812 C 129.8125 11.984375 129.667969 12.207031 129.480469 12.433594 C 129.996094 12.433594 130.507812 12.433594 131.039062 12.433594 C 131.375 12.617188 131.335938 12.695312 130.726562 12.863281 C 129.34375 12.878906 128.246094 12.886719 126.964844 12.796875 C 125.660156 12.527344 126.367188 12.164062 126.671875 11.851562 C 126.773438 11.757812 126.875 11.660156 126.984375 11.566406 C 126.570312 11.566406 126.160156 11.566406 125.734375 11.566406 C 125.722656 11.457031 125.722656 11.34375 125.734375 11.230469 C 126.046875 11.183594 126.046875 11.183594 126.847656 11.179688 C 127.097656 11.183594 127.347656 11.183594 127.609375 11.183594 C 127.609375 11.042969 127.609375 10.898438 127.609375 10.753906 Z M 127.609375 10.753906 "/>
<path style=" stroke:none;fill-rule:nonzero;fill:rgb(94.509804%,49.411765%,65.490198%);fill-opacity:1;" d="M 32.136719 9.839844 C 32.238281 9.871094 32.34375 9.902344 32.449219 9.9375 C 32.652344 9.9375 32.859375 9.9375 33.070312 9.9375 C 33.175781 9.90625 33.277344 9.871094 33.382812 9.839844 C 33.8125 9.902344 34.230469 9.964844 34.632812 10.03125 C 34.632812 10.0625 34.632812 10.09375 34.632812 10.128906 C 35.164062 10.136719 35.164062 10.136719 35.703125 10.148438 C 36.816406 10.175781 36.816406 10.175781 37.128906 10.222656 C 37.238281 10.535156 37.238281 10.535156 36.503906 10.703125 C 36.195312 10.71875 35.886719 10.734375 35.566406 10.753906 C 35.183594 10.921875 35.183594 10.921875 34.945312 11.089844 C 35.355469 11.105469 35.769531 11.121094 36.191406 11.136719 C 33.273438 11.171875 31.601562 11.019531 29.328125 10.753906 C 29.328125 10.816406 29.328125 10.878906 29.328125 10.945312 C 29.328125 10.992188 29.328125 11.039062 29.328125 11.089844 C 28.917969 11.089844 28.503906 11.089844 28.078125 11.089844 C 28.128906 11.058594 28.175781 11.027344 28.226562 10.996094 C 28.53125 10.789062 28.726562 10.632812 28.527344 10.417969 C 28.390625 10.273438 28.390625 10.273438 28.703125 10.179688 C 29.636719 10.101562 30.476562 10.117188 31.511719 10.128906 C 31.511719 10.175781 31.511719 10.222656 31.511719 10.273438 C 32.234375 10.222656 32.953125 10.175781 33.695312 10.128906 C 33.695312 10.097656 33.695312 10.066406 33.695312 10.03125 C 32.921875 10.007812 32.921875 10.007812 32.136719 9.984375 C 32.136719 9.9375 32.136719 9.890625 32.136719 9.839844 Z M 32.136719 9.839844 "/>
<path style=" stroke:none;fill-rule:nonzero;fill:rgb(92.54902%,45.490196%,61.56863%);fill-opacity:1;" d="M 70.53125 10.554688 C 71.613281 10.558594 71.613281 10.558594 72.695312 10.558594 C 72.476562 10.972656 72.167969 11.382812 71.84375 11.792969 C 71.757812 11.902344 71.675781 12.011719 71.59375 12.117188 C 71.539062 12.1875 71.484375 12.257812 71.429688 12.324219 C 71.378906 12.386719 71.332031 12.449219 71.28125 12.511719 C 71.136719 12.671875 71.136719 12.671875 70.824219 12.863281 C 69.898438 12.863281 68.972656 12.863281 68.015625 12.863281 C 68.214844 12.40625 68.519531 11.953125 68.867188 11.5 C 68.953125 11.386719 69.035156 11.273438 69.121094 11.160156 C 69.175781 11.089844 69.230469 11.019531 69.285156 10.949219 C 69.308594 10.914062 69.332031 10.878906 69.359375 10.847656 C 69.582031 10.5625 69.582031 10.5625 70.53125 10.554688 Z M 70.53125 10.554688 "/>
<path style=" stroke:none;fill-rule:nonzero;fill:rgb(92.54902%,45.490196%,61.56863%);fill-opacity:1;" d="M 74.566406 11.183594 C 75.496094 11.183594 76.421875 11.183594 77.375 11.183594 C 76.949219 12.484375 76.949219 12.484375 76.128906 12.863281 C 75.203125 12.863281 74.273438 12.863281 73.320312 12.863281 C 73.226562 12.503906 73.585938 12.164062 73.945312 11.808594 C 74.035156 11.71875 74.035156 11.71875 74.125 11.625 C 74.269531 11.480469 74.417969 11.332031 74.566406 11.183594 Z M 74.566406 11.183594 "/>
<path style=" stroke:none;fill-rule:nonzero;fill:rgb(94.117647%,93.725491%,98.431373%);fill-opacity:1;" d="M 85.175781 11.566406 C 85.949219 11.6875 85.894531 11.726562 85.898438 11.890625 C 85.871094 12.117188 85.632812 12.3125 84.550781 12.480469 C 83.929688 12.480469 83.304688 12.480469 82.679688 12.480469 C 81.902344 12.300781 81.882812 12.113281 82.054688 11.902344 C 82.773438 11.628906 83.226562 11.546875 85.175781 11.566406 Z M 85.175781 11.566406 "/>
<path style=" stroke:none;fill-rule:nonzero;fill:rgb(97.254902%,42.352942%,64.705884%);fill-opacity:1;" d="M 106.390625 13.199219 C 107.132812 13.289062 107.132812 13.289062 107.640625 13.390625 C 107.640625 13.421875 107.640625 13.457031 107.640625 13.488281 C 107.226562 13.488281 106.816406 13.488281 106.390625 13.488281 C 106.289062 13.457031 106.1875 13.425781 106.078125 13.390625 C 105.667969 13.390625 105.257812 13.390625 104.832031 13.390625 C 104.832031 13.421875 104.832031 13.457031 104.832031 13.488281 C 105.007812 13.5 105.183594 13.511719 105.367188 13.523438 C 107.234375 13.648438 107.234375 13.648438 107.699219 13.804688 C 107.640625 13.921875 107.640625 13.921875 107.328125 14.007812 C 106.378906 14.09375 105.601562 14.078125 104.519531 14.0625 C 104.210938 14.03125 103.902344 14 103.585938 13.96875 C 103.585938 13.90625 103.585938 13.839844 103.585938 13.777344 C 103.894531 13.777344 104.203125 13.777344 104.519531 13.777344 C 104.621094 13.808594 104.726562 13.839844 104.832031 13.871094 C 105.621094 13.902344 105.621094 13.902344 106.390625 13.921875 C 106.289062 13.871094 106.1875 13.824219 106.078125 13.777344 C 105.539062 13.746094 105.539062 13.746094 104.988281 13.714844 C 103.894531 13.632812 103.894531 13.632812 103.546875 13.488281 C 103.585938 13.34375 103.585938 13.34375 103.914062 13.253906 C 104.800781 13.175781 105.382812 13.179688 106.390625 13.199219 Z M 106.390625 13.199219 "/>
<path style=" stroke:none;fill-rule:nonzero;fill:rgb(97.254902%,42.352942%,64.705884%);fill-opacity:1;" d="M 115.128906 13.441406 C 115.652344 13.496094 115.652344 13.496094 116.0625 13.585938 C 116.15625 13.703125 116.15625 13.703125 116.121094 13.832031 C 116.113281 13.875 116.105469 13.917969 116.097656 13.964844 C 116.085938 13.996094 116.074219 14.03125 116.0625 14.0625 C 115.558594 14.066406 115.050781 14.070312 114.542969 14.070312 C 114.261719 14.070312 113.976562 14.070312 113.6875 14.074219 C 112.945312 14.0625 112.945312 14.0625 112.320312 13.96875 C 112.4375 13.84375 112.4375 13.84375 112.632812 13.726562 C 113.714844 13.703125 113.714844 13.703125 114.816406 13.679688 C 114.816406 13.648438 114.816406 13.617188 114.816406 13.585938 C 114.09375 13.601562 113.375 13.617188 112.632812 13.632812 C 112.632812 13.585938 112.632812 13.535156 112.632812 13.488281 C 113.503906 13.421875 114.164062 13.429688 115.128906 13.441406 Z M 115.128906 13.441406 "/>
<path style=" stroke:none;fill-rule:nonzero;fill:rgb(97.254902%,44.313726%,66.274512%);fill-opacity:1;" d="M 108.265625 13.199219 C 108.675781 13.199219 109.085938 13.199219 109.511719 13.199219 C 109.511719 13.277344 109.511719 13.359375 109.511719 13.441406 C 109.757812 13.4375 110 13.4375 110.253906 13.433594 C 111.070312 13.441406 111.070312 13.441406 111.695312 13.535156 C 111.757812 13.660156 111.757812 13.660156 111.734375 13.804688 C 111.730469 13.855469 111.722656 13.902344 111.71875 13.953125 C 111.707031 14.007812 111.707031 14.007812 111.695312 14.0625 C 111.386719 14.0625 111.078125 14.0625 110.761719 14.0625 C 110.65625 13.921875 110.554688 13.777344 110.449219 13.632812 C 110.140625 13.617188 109.832031 13.601562 109.511719 13.585938 C 109.511719 13.742188 109.511719 13.902344 109.511719 14.0625 C 109.101562 14.0625 108.6875 14.0625 108.265625 14.0625 C 108.265625 13.777344 108.265625 13.492188 108.265625 13.199219 Z M 108.265625 13.199219 "/>
<path style=" stroke:none;fill-rule:nonzero;fill:rgb(96.862745%,46.666667%,67.450982%);fill-opacity:1;" d="M 122.617188 13.441406 C 123.199219 13.523438 123.199219 13.523438 123.550781 13.632812 C 123.550781 13.695312 123.550781 13.757812 123.550781 13.824219 C 122.726562 13.824219 121.90625 13.824219 121.054688 13.824219 C 121.054688 13.855469 121.054688 13.886719 121.054688 13.921875 C 121.671875 13.902344 122.292969 13.886719 122.929688 13.871094 C 122.929688 13.917969 122.929688 13.96875 122.929688 14.015625 C 122.617188 14.0625 122.617188 14.0625 121.71875 14.074219 C 120.742188 14.0625 120.742188 14.0625 120.160156 14.011719 C 119.609375 13.867188 119.691406 13.75 119.808594 13.585938 C 120.476562 13.40625 121.367188 13.410156 122.617188 13.441406 Z M 122.617188 13.441406 "/>
<path style=" stroke:none;fill-rule:nonzero;fill:rgb(92.54902%,46.666667%,62.352943%);fill-opacity:1;" d="M 77.375 10.464844 C 78 10.558594 78 10.558594 78.117188 10.726562 C 78 10.894531 78 10.894531 77.472656 10.992188 C 76.5625 11.050781 76.121094 11.039062 75.191406 10.992188 C 74.984375 10.960938 74.78125 10.929688 74.566406 10.894531 C 74.625 10.726562 74.625 10.726562 74.878906 10.558594 C 75.886719 10.457031 76.210938 10.445312 77.375 10.464844 Z M 77.375 10.464844 "/>
<path style=" stroke:none;fill-rule:nonzero;fill:rgb(96.078432%,64.705884%,75.686276%);fill-opacity:1;" d="M 32.136719 9.839844 C 32.238281 9.871094 32.34375 9.902344 32.449219 9.9375 C 32.652344 9.9375 32.859375 9.9375 33.070312 9.9375 C 33.175781 9.90625 33.277344 9.871094 33.382812 9.839844 C 33.8125 9.902344 34.230469 9.964844 34.632812 10.03125 C 34.632812 10.0625 34.632812 10.09375 34.632812 10.128906 C 34.984375 10.136719 35.339844 10.140625 35.703125 10.148438 C 36.816406 10.175781 36.816406 10.175781 37.128906 10.222656 C 37.238281 10.535156 37.238281 10.535156 36.503906 10.703125 C 36.195312 10.71875 35.886719 10.734375 35.566406 10.753906 C 35.1875 10.894531 35.1875 10.894531 34.945312 11.039062 C 34.621094 10.890625 34.628906 10.800781 34.671875 10.644531 C 34.679688 10.398438 34.550781 10.242188 33.695312 10.03125 C 32.890625 9.980469 32.890625 9.980469 32.136719 9.984375 C 32.136719 9.9375 32.136719 9.890625 32.136719 9.839844 Z M 32.136719 9.839844 "/>
<path style=" stroke:none;fill-rule:nonzero;fill:rgb(95.294118%,60.392159%,72.549021%);fill-opacity:1;" d="M 31.511719 10.128906 C 31.511719 10.175781 31.511719 10.222656 31.511719 10.273438 C 31.71875 10.289062 31.925781 10.304688 32.136719 10.320312 C 30.652344 10.511719 30.652344 10.511719 29.953125 10.511719 C 30.054688 10.605469 30.15625 10.703125 30.265625 10.800781 C 29.851562 10.800781 29.441406 10.800781 29.015625 10.800781 C 29.117188 10.894531 29.222656 10.988281 29.328125 11.089844 C 28.917969 11.089844 28.503906 11.089844 28.078125 11.089844 C 28.128906 11.058594 28.175781 11.027344 28.226562 10.996094 C 28.53125 10.789062 28.726562 10.632812 28.527344 10.417969 C 28.390625 10.273438 28.390625 10.273438 28.703125 10.179688 C 29.636719 10.101562 30.476562 10.117188 31.511719 10.128906 Z M 31.511719 10.128906 "/>
<path style=" stroke:none;fill-rule:nonzero;fill:rgb(97.254902%,40.392157%,63.529414%);fill-opacity:1;" d="M 126.046875 13.199219 C 127.386719 13.199219 128.726562 13.199219 130.105469 13.199219 C 130.105469 13.246094 130.105469 13.296875 130.105469 13.34375 C 129.589844 13.34375 129.074219 13.34375 128.542969 13.34375 C 128.542969 13.582031 128.542969 13.820312 128.542969 14.0625 C 128.234375 14.0625 127.925781 14.0625 127.609375 14.0625 C 127.609375 13.828125 127.609375 13.589844 127.609375 13.34375 C 127.09375 13.34375 126.578125 13.34375 126.046875 13.34375 C 126.046875 13.296875 126.046875 13.25 126.046875 13.199219 Z M 126.046875 13.199219 "/>
<path style=" stroke:none;fill-rule:nonzero;fill:rgb(97.254902%,45.490196%,66.666669%);fill-opacity:1;" d="M 124.175781 13.199219 C 124.585938 13.199219 125 13.199219 125.425781 13.199219 C 125.425781 13.484375 125.425781 13.769531 125.425781 14.0625 C 125.011719 14.0625 124.601562 14.0625 124.175781 14.0625 C 124.175781 13.777344 124.175781 13.492188 124.175781 13.199219 Z M 124.175781 13.199219 "/>
<path style=" stroke:none;fill-rule:nonzero;fill:rgb(97.254902%,43.921569%,65.882355%);fill-opacity:1;" d="M 116.6875 13.441406 C 117.511719 13.441406 118.335938 13.441406 119.183594 13.441406 C 119.183594 13.503906 119.183594 13.566406 119.183594 13.632812 C 118.773438 13.632812 118.359375 13.632812 117.9375 13.632812 C 117.9375 13.773438 117.9375 13.917969 117.9375 14.0625 C 117.523438 14.0625 117.113281 14.0625 116.6875 14.0625 C 116.6875 13.859375 116.6875 13.652344 116.6875 13.441406 Z M 116.6875 13.441406 "/>
<path style=" stroke:none;fill-rule:nonzero;fill:rgb(94.117647%,90.588236%,96.078432%);fill-opacity:1;" d="M 109.023438 11.558594 C 110.136719 11.566406 110.136719 11.566406 110.761719 11.664062 C 110.761719 11.726562 110.761719 11.789062 110.761719 11.855469 C 109.523438 11.855469 108.289062 11.855469 107.015625 11.855469 C 107.761719 11.570312 107.761719 11.570312 109.023438 11.558594 Z M 109.023438 11.558594 "/>
<path style=" stroke:none;fill-rule:nonzero;fill:rgb(96.470588%,54.509807%,72.941178%);fill-opacity:1;" d="M 114.816406 13.679688 C 114.878906 13.859375 114.863281 13.910156 114.191406 14.0625 C 113.675781 14.046875 113.164062 14.03125 112.632812 14.015625 C 112.527344 13.9375 112.425781 13.859375 112.320312 13.777344 C 113.328125 13.671875 113.65625 13.671875 114.816406 13.679688 Z M 114.816406 13.679688 "/>
<path style=" stroke:none;fill-rule:nonzero;fill:rgb(97.254902%,38.82353%,62.352943%);fill-opacity:1;" d="M 109.824219 13.441406 C 111.34375 13.480469 111.34375 13.480469 111.695312 13.535156 C 111.71875 13.625 111.722656 13.714844 111.714844 13.804688 C 111.710938 13.851562 111.710938 13.898438 111.707031 13.949219 C 111.703125 13.988281 111.699219 14.023438 111.695312 14.0625 C 111.386719 14.0625 111.078125 14.0625 110.761719 14.0625 C 110.738281 14.019531 110.738281 14.019531 110.714844 13.972656 C 110.691406 13.929688 110.667969 13.890625 110.644531 13.851562 C 110.621094 13.8125 110.597656 13.773438 110.578125 13.730469 C 110.535156 13.699219 110.492188 13.664062 110.449219 13.632812 C 110.242188 13.617188 110.035156 13.601562 109.824219 13.585938 C 109.824219 13.535156 109.824219 13.488281 109.824219 13.441406 Z M 109.824219 13.441406 "/>
<path style=" stroke:none;fill-rule:nonzero;fill:rgb(94.901961%,86.274511%,93.725491%);fill-opacity:1;" d="M 112.320312 13.535156 C 112.421875 13.566406 112.527344 13.597656 112.632812 13.632812 C 113.714844 13.609375 113.714844 13.609375 114.816406 13.585938 C 114.816406 13.617188 114.816406 13.648438 114.816406 13.679688 C 113.890625 13.710938 112.960938 13.742188 112.007812 13.777344 C 112.007812 13.871094 112.007812 13.964844 112.007812 14.0625 C 111.90625 14.0625 111.800781 14.0625 111.695312 14.0625 C 111.695312 13.90625 111.695312 13.746094 111.695312 13.585938 C 111.902344 13.566406 112.109375 13.550781 112.320312 13.535156 Z M 112.320312 13.535156 "/>
<path style=" stroke:none;fill-rule:nonzero;fill:rgb(97.254902%,74.901962%,82.745099%);fill-opacity:1;" d="M 29.640625 10.511719 C 29.683594 10.542969 29.730469 10.570312 29.777344 10.601562 C 29.929688 10.707031 29.929688 10.707031 30.265625 10.800781 C 29.851562 10.800781 29.441406 10.800781 29.015625 10.800781 C 29.117188 10.894531 29.222656 10.988281 29.328125 11.089844 C 28.917969 11.089844 28.503906 11.089844 28.078125 11.089844 C 28.160156 11.019531 28.246094 10.949219 28.332031 10.882812 C 28.378906 10.84375 28.425781 10.804688 28.476562 10.765625 C 28.726562 10.644531 29.023438 10.59375 29.640625 10.511719 Z M 29.640625 10.511719 "/>
<path style=" stroke:none;fill-rule:nonzero;fill:rgb(94.901961%,87.058824%,94.117647%);fill-opacity:1;" d="M 104.832031 13.34375 C 105.347656 13.359375 105.863281 13.375 106.390625 13.390625 C 106.390625 13.421875 106.390625 13.457031 106.390625 13.488281 C 106.804688 13.503906 107.214844 13.519531 107.640625 13.535156 C 107.332031 13.535156 107.023438 13.535156 106.703125 13.535156 C 106.601562 13.566406 106.5 13.597656 106.390625 13.632812 C 105.773438 13.585938 105.15625 13.535156 104.519531 13.488281 C 104.621094 13.441406 104.726562 13.394531 104.832031 13.34375 Z M 104.832031 13.34375 "/>
</g>
</svg>
